PathFileType	4	(X/Y/Z)	../Python\walking\Walking12\task.trc
DataRate	CameraRate	NumFrames	NumMarkers	Units	OrigDataRate	OrigDataStartFrame	OrigNumFrames
200.000000	200.000000	4	30	mm	200.000000	319	426
Frame#	Time	CLAV			STRN			RASI			LASI			RTH1			RTH2			RTH3			RTB1			RTB2			RTB3			RD5M			RTOE			LTH1			LTH3			LTB1			LTB2			LTB3			LTOE			LD5M			LTH2			RHEE			T10			PE03			RPSI			PE02			LPSI			PE01			C7			RBAK			LHEE			
		X1	Y1	Z1	X2	Y2	Z2	X3	Y3	Z3	X4	Y4	Z4	X5	Y5	Z5	X6	Y6	Z6	X7	Y7	Z7	X8	Y8	Z8	X9	Y9	Z9	X10	Y10	Z10	X11	Y11	Z11	X12	Y12	Z12	X13	Y13	Z13	X14	Y14	Z14	X15	Y15	Z15	X16	Y16	Z16	X17	Y17	Z17	X18	Y18	Z18	X19	Y19	Z19	X20	Y20	Z20	X21	Y21	Z21	X22	Y22	Z22	X23	Y23	Z23	X24	Y24	Z24	X25	Y25	Z25	X26	Y26	Z26	X27	Y27	Z27	X28	Y28	Z28	X29	Y29	Z29	X30	Y30	Z30	

320	1.595	2349.041748046876	1438.867919921875	152.6407165527344	2412.971923828126	1249.470336914063	165.7571716308594	2381.195556640626	1043.586303710938	312.1391906738282	2400.090576171876	1023.510192871094	40.73855590820314	2330.350585937501	775.3860473632817	337.5450134277345	2271.948730468751	754.3881835937502	333.2669067382814	2289.873291015626	710.3440551757815	316.5552673339845	2269.791503906251	370.2483520507814	254.2705993652345	2224.401611328126	328.815643310547	250.0708770751954	2257.451416015626	293.0638122558595	239.7469177246095	2312.878906250001	10.07006549835205	224.230194091797	2373.378906250001	25.3226661682129	180.4226226806641	2411.928222656251	720.005310058594	1.250926852226258	2463.286621093751	660.9512329101565	10.22835922241211	2428.563720703126	412.4456787109377	21.19240188598634	2386.366699218751	388.9166259765627	33.44031143188478	2415.375000000001	334.6609802246095	26.80340957641603	2421.098144531251	48.89702606201175	65.5122985839844	2378.924560546876	52.34908294677737	26.50623321533205	2404.241699218751	674.3024902343752	20.62997055053712	2159.101806640626	32.75919342041017	135.2765808105469	2184.968750000001	1265.176147460938	151.9918975830079	2219.327880859376	1063.159545898438	139.1690521240235	2223.382568359376	1079.381958007813	212.6123504638673	2219.498535156251	1065.979248046875	190.0643768310547	2226.348388671876	1074.05712890625	113.1582183837891	2233.171386718751	1123.983032226563	160.5629425048829	2234.125488281251	1528.517578125	137.1759338378907	2212.163574218751	1443.168334960938	312.285369873047	2237.791259765626	134.5148468017579	91.61244201660159	
321	1.6	2355.021728515626	1438.611206054688	153.2142944335938	2418.675048828126	1249.163452148438	166.4861145019532	2386.284423828126	1043.186279296875	312.695281982422	2406.198974609376	1023.523864746094	41.39650344848634	2334.015136718751	775.0927734375005	337.8542480468751	2275.536132812501	754.4226074218752	333.3404541015626	2293.240722656251	710.2715454101565	316.7254333496095	2271.486816406251	370.3079528808595	254.2286224365236	2225.855957031251	329.1212158203126	249.8934020996095	2258.750000000001	293.193328857422	239.6967620849611	2312.834228515626	10.07224655151368	224.2431640625001	2373.497802734376	25.27842140197755	180.4869232177735	2420.302246093751	720.7928466796877	1.233385086059571	2471.902587890626	662.0793457031252	10.8636646270752	2440.042724609376	410.666442871094	22.06759071350098	2398.448730468751	386.0108032226565	34.17938613891603	2429.000488281251	332.556854248047	27.8825035095215	2443.130126953126	47.55410385131837	67.00566864013675	2400.867187500001	49.54816055297854	28.04384613037111	2412.628417968751	674.9798583984377	20.33694458007813	2159.387939453126	33.1495819091797	134.8495178222657	2190.671386718751	1265.116943359375	152.4914245605469	2225.090820312501	1063.030517578125	139.0143585205079	2228.856689453126	1079.161987304688	212.4934997558595	2225.061279296876	1065.782348632813	189.9004669189454	2232.227783203126	1073.949462890625	113.0485076904297	2238.843750000001	1123.830078125	160.5410156250001	2240.171142578126	1528.292236328125	137.6600799560547	2218.135986328126	1443.134155273438	312.876434326172	2257.168945312501	127.2849273681641	92.89308166503909	
322	1.605	2361.015625000001	1438.304565429688	153.7846374511719	2424.391113281251	1248.810180664063	167.1951446533204	2391.399902343751	1042.750244140625	313.2163085937501	2412.327880859376	1023.478332519532	42.01755905151369	2337.715820312501	774.786254882813	338.1453552246095	2279.160156250001	754.441589355469	333.4128417968751	2296.644531250001	710.186462402344	316.885223388672	2273.182617187501	370.3614196777345	254.1817016601564	2227.308349609376	329.425750732422	249.712860107422	2260.045410156251	293.3184814453126	239.6448364257814	2312.789306640626	10.07778644561768	224.2543945312501	2373.613037109376	25.23764801025392	180.5476379394532	2428.531250000001	721.4965820312502	1.272779703140259	2480.348388671876	663.088806152344	11.53567695617676	2451.406005859376	408.7970886230471	22.98704338073731	2410.469970703126	383.0081176757814	34.99036407470705	2442.563476562501	330.419891357422	28.97349929809572	2465.227539062501	46.37430953979494	68.47556304931643	2422.906005859376	46.9000587463379	29.58606529235841	2420.878417968751	675.5896606445315	20.10803794860841	2159.676757812501	33.54544067382814	134.423812866211	2196.384765625001	1265.00927734375	152.9645538330079	2230.878662109376	1062.85791015625	138.8588256835938	2234.354492187501	1078.912475585938	212.3712768554689	2230.646484375001	1065.550903320313	189.7339630126954	2238.132080078126	1073.794555664063	112.9385375976563	2244.532714843751	1123.637817382813	160.505844116211	2246.229492187501	1528.015869140625	138.1410217285157	2224.110107421876	1443.0380859375	313.4555053710939	2276.789550781251	120.1188125610352	94.2527770996094	
323	1.61	2367.023925781251	1437.947509765625	154.351303100586	2430.121093750001	1248.41015625	167.884750366211	2396.541992187501	1042.277465820313	313.7046203613282	2418.480468750001	1023.373413085938	42.60420608520509	2341.460937500001	774.4629516601567	338.4170837402345	2282.828125000001	754.4417114257815	333.4856262207032	2300.092285156251	710.085876464844	317.0341796875001	2274.883789062501	370.4069824218751	254.1293182373048	2228.764160156251	329.7279052734376	249.5307159423829	2261.342285156251	293.4376525878907	239.5905609130861	2312.745117187501	10.08681201934815	224.2642822265626	2373.725097656251	25.19961166381837	180.6055603027344	2436.608398437501	722.1084594726565	1.372212648391724	2488.619628906251	663.9700927734377	12.23933982849122	2462.647460937501	406.8422546386721	23.95081329345704	2422.426513671876	379.9170227050782	35.87668609619142	2456.054443359376	328.2597656250001	30.07365798950197	2487.373046875001	45.37363052368165	69.92368316650393	2445.025634765626	44.4231414794922	31.13384246826173	2428.985351562501	676.1243896484377	19.94550895690919	2159.964355468751	33.9468116760254	134.0035552978516	2202.109619140626	1264.852172851563	153.4111633300782	2236.692871093751	1062.640502929688	138.7015686035157	2239.876708984376	1078.63134765625	212.2450561523439	2236.255371093751	1065.283203125	189.5643310546876	2244.062255859376	1073.591430664063	112.8274993896485	2250.239013671876	1123.404541015625	160.4572753906251	2252.301025390626	1527.687866210938	138.617904663086	2230.086669921876	1442.879272460938	314.0218505859376	2296.642333984376	113.0499725341797	95.68489074707034	
